<svg width="93" height="105" viewBox="0 0 93 105" fill="none" xmlns="http://www.w3.org/2000/svg">
<path d="M93 0L84.2799 94.7909L46.4994 105L8.71828 94.7909L0 0H93ZM75.4285 19.2743H46.4654H16.9892L18.3989 30.7211H46.4654H48.0419L46.4654 31.3797L19.4246 42.6824L20.3214 53.8714L46.4654 53.9564L60.4778 54.001L59.5808 68.9201L46.4652 72.626V72.6143L46.3577 72.6443L33.6913 69.4353L32.9227 60.1743H32.8807H21.132H21.0906L22.6285 78.0525L46.4656 85.127V85.1142L46.5086 85.127L70.2179 78.1813L73.2934 42.6824H46.4656H46.3995L46.4656 42.6536L74.2762 30.7211L75.4285 19.2743Z" fill="white"/>
</svg>
