<svg width="113" height="113" viewBox="0 0 113 113" fill="none" xmlns="http://www.w3.org/2000/svg">
<path fill-rule="evenodd" clip-rule="evenodd" d="M3.26065 50.8914C0.163118 53.989 0.163118 59.011 3.26065 62.1086L50.8914 109.739C53.989 112.837 59.011 112.837 62.1086 109.739L109.739 62.1086C112.837 59.011 112.837 53.989 109.739 50.8914L62.1086 3.26065C59.011 0.163118 53.989 0.163118 50.8914 3.26065L3.26065 50.8914ZM36.3927 17.9113L41.216 13.0879L53.9985 25.8704C54.7887 25.6255 55.6281 25.4936 56.4984 25.4936C61.1561 25.4936 64.932 29.2695 64.932 33.9273C64.932 34.7977 64.8002 35.6375 64.5554 36.4272L77.3447 49.2165C78.1622 48.9526 79.0338 48.8101 79.939 48.8101C84.5968 48.8101 88.3726 52.586 88.3726 57.2437C88.3726 61.9015 84.5968 65.6773 79.939 65.6773C75.2813 65.6773 71.5054 61.9015 71.5054 57.2437C71.5054 56.0055 71.7722 54.8295 72.2516 53.7703L60.3433 41.862V72.6798C63.0679 74.0776 64.932 76.9152 64.932 80.1879C64.932 84.8456 61.1561 88.6215 56.4984 88.6215C51.8407 88.6215 48.0648 84.8456 48.0648 80.1879C48.0648 76.5779 50.333 73.4977 53.5219 72.2948V41.8204C50.333 40.6174 48.0648 37.5373 48.0648 33.9273C48.0648 32.6558 48.3462 31.45 48.8502 30.3688L36.3927 17.9113Z" fill="white"/>
</svg>
