<svg width="127" height="127" viewBox="0 0 127 127" fill="none" xmlns="http://www.w3.org/2000/svg">
<path fill-rule="evenodd" clip-rule="evenodd" d="M10.2606 57.8914C7.16312 60.989 7.16312 66.011 10.2606 69.1086L57.8914 116.739C60.989 119.837 66.011 119.837 69.1086 116.739L116.739 69.1086C119.837 66.011 119.837 60.989 116.739 57.8914L69.1086 10.2606C66.011 7.16312 60.989 7.16312 57.8914 10.2606L10.2606 57.8914ZM43.3927 24.9113L48.2159 20.0879L60.9985 32.8704C61.7887 32.6255 62.6281 32.4936 63.4984 32.4936C68.1561 32.4936 71.932 36.2695 71.932 40.9273C71.932 41.7977 71.8002 42.6375 71.5554 43.4272L84.3447 56.2165C85.1622 55.9526 86.0338 55.8101 86.939 55.8101C91.5968 55.8101 95.3726 59.586 95.3726 64.2437C95.3726 68.9015 91.5968 72.6773 86.939 72.6773C82.2813 72.6773 78.5054 68.9015 78.5054 64.2437C78.5054 63.0055 78.7722 61.8295 79.2516 60.7703L67.3433 48.862V79.6798C70.0679 81.0776 71.932 83.9152 71.932 87.1879C71.932 91.8456 68.1561 95.6215 63.4984 95.6215C58.8407 95.6215 55.0648 91.8456 55.0648 87.1879C55.0648 83.5779 57.333 80.4977 60.5219 79.2948V48.8204C57.333 47.6174 55.0648 44.5373 55.0648 40.9273C55.0648 39.6558 55.3462 38.45 55.8502 37.3688L43.3927 24.9113Z" fill="#AD6868"/>
</svg>
