<svg width="103" height="103" viewBox="0 0 103 103" fill="none" xmlns="http://www.w3.org/2000/svg">
<path d="M6.17859 0.10083L14.4274 92.6236L51.4443 102.899L88.5635 92.6091L96.8214 0.10083H6.17859ZM79.6146 22.0577L79.0982 27.8104L78.8712 30.3615H78.8336H51.5H51.4604H35.4473L36.4843 41.9814H51.4604H51.5H74.7802H77.8382L77.5612 45.0283L74.8947 74.9036L74.7239 76.8193L51.5 83.2558V83.2582L51.4479 83.2727L28.2031 76.8195L26.6132 59.0025H31.8634H38.0044L38.8123 68.0525L51.4499 71.4653L51.4604 71.4625V71.4613L64.1173 68.046L65.4334 53.3287H51.5H51.4604H26.1063L23.3174 22.0577L23.0456 19.0138H51.4606H51.5H79.8861L79.6146 22.0577Z" fill="#AD6868"/>
</svg>
