<svg width="93" height="105" viewBox="0 0 93 105" fill="none" xmlns="http://www.w3.org/2000/svg">
<path d="M0 0L8.46337 94.5045L46.4428 105L84.5274 94.4897L93 0H0ZM75.3457 22.4272L74.8159 28.3031L74.583 30.9088H74.5444H46.5H46.4593H30.0298L31.0938 42.7776H46.4593H46.5H70.3856H73.5232L73.2389 45.8898L70.5031 76.4049L70.3278 78.3617L46.5 84.936V84.9385L46.4465 84.9533L22.5973 78.3619L20.966 60.1633H26.3528H32.6534L33.4823 69.4071L46.4486 72.893L46.4593 72.8902V72.8889L59.4454 69.4005L60.7957 54.3679H46.5H46.4593H20.4459L17.5845 22.4272L17.3057 19.3181H46.4595H46.5H75.6243L75.3457 22.4272Z" fill="white"/>
</svg>
