<svg width="101" height="101" viewBox="0 0 101 101" fill="none" xmlns="http://www.w3.org/2000/svg">
<path fill-rule="evenodd" clip-rule="evenodd" d="M0.198833 0.0986328C0.0863914 0.115006 0.0946766 0.250527 0.102764 0.386246C0.102764 33.8559 0.102764 67.3204 0.102764 100.789C33.5125 101.013 67.3325 100.821 100.901 100.885C100.901 67.2891 100.901 33.6945 100.901 0.0986328C67.335 0.0986328 33.7654 0.0986328 0.198833 0.0986328ZM51.2679 89.197C48.9359 91.5482 45.2557 92.9328 40.7282 92.9328C33.3026 92.9328 29.1797 89.315 26.548 84.3101C29.0813 82.6926 31.6702 81.1298 34.3092 79.6162C35.3855 82.6269 39.0211 86.0116 43.1236 83.9278C45.7242 82.6064 45.424 78.5997 45.424 74.2512C45.424 65.2217 45.424 54.8051 45.424 46.6592C45.4157 46.5235 45.4076 46.388 45.519 46.3716C48.6175 46.3716 51.7157 46.3716 54.8134 46.3716C54.8134 53.6286 54.8134 61.8376 54.8134 69.5561C54.8134 77.9592 55.4139 85.0191 51.2679 89.197ZM92.8521 80.8625C92.3246 88.7303 85.8999 92.9082 77.2346 92.9328C68.74 92.9573 63.3029 89.1822 59.9871 83.3522C62.371 81.7116 65.0722 80.3899 67.5572 78.8502C69.5456 81.9593 72.9893 84.9477 78.0969 84.5023C81.2789 84.2249 84.9727 81.6311 82.8875 77.7002C81.8761 75.7946 79.4321 74.8266 77.2346 73.8683C70.2609 70.8257 62.0791 68.0349 62.8616 57.1023C63.1234 53.4501 64.8051 50.8835 66.9823 49.0546C69.2136 47.1806 72.202 45.9246 76.1806 45.7976C83.4063 45.5662 87.3701 48.7802 90.0738 53.2708C87.7729 55.0247 85.2381 56.547 82.6959 58.0606C81.8617 55.4971 77.8345 52.9992 74.4557 54.5159C72.9192 55.205 71.5386 57.2305 72.3481 59.689C73.0701 61.8816 76.0151 63.0818 78.3843 64.0967C85.5553 67.1662 93.5692 70.166 92.8521 80.8625Z" fill="white"/>
</svg>
