<svg width="194" height="66" viewBox="0 0 194 66" fill="none" xmlns="http://www.w3.org/2000/svg">
<path fill-rule="evenodd" clip-rule="evenodd" d="M33 0C14.7746 0 0 14.7746 0 33C0 51.2254 14.7746 66 33 66H161C179.225 66 194 51.2254 194 33C194 14.7746 179.225 0 161 0H33ZM27.38 19.76V46H30.5V32.88C30.5 32.24 30.4733 31.5067 30.42 30.68C30.3933 29.8533 30.3533 29 30.3 28.12C30.2467 27.24 30.18 26.4133 30.1 25.64C30.0467 24.84 29.9933 24.16 29.94 23.6H30.02L31.54 28.72L35.22 39.04H37.62L41.38 28.72L42.86 23.6H42.98C42.9533 24.16 42.9 24.84 42.82 25.64C42.7667 26.4133 42.7 27.24 42.62 28.12C42.5667 29 42.5133 29.8533 42.46 30.68C42.4333 31.5067 42.42 32.24 42.42 32.88V46H45.62V19.76H41.54L37.82 30.96L36.58 35.2H36.42L35.14 30.96L31.46 19.76H27.38ZM52.2844 43.16V46H68.6844V43.16H62.1644V22.56H68.6844V19.76H52.2844V22.56H58.8044V43.16H52.2844ZM75.9488 19.76V46H82.5888C85.1754 46 87.3621 45.48 89.1488 44.44C90.9354 43.4 92.2821 41.8933 93.1888 39.92C94.1221 37.9467 94.5888 35.56 94.5888 32.76C94.5888 29.9867 94.1221 27.6267 93.1888 25.68C92.2554 23.7333 90.8821 22.2667 89.0687 21.28C87.2821 20.2667 85.0687 19.76 82.4287 19.76H75.9488ZM82.1888 43.28H79.2688V22.48H82.1888C84.1888 22.48 85.8421 22.88 87.1488 23.68C88.4821 24.4533 89.4821 25.6133 90.1488 27.16C90.8154 28.7067 91.1488 30.5733 91.1488 32.76C91.1488 34.9733 90.8154 36.8667 90.1488 38.44C89.4821 39.9867 88.4821 41.1867 87.1488 42.04C85.8421 42.8667 84.1888 43.28 82.1888 43.28ZM99.9331 19.76V46H106.573C109.16 46 111.346 45.48 113.133 44.44C114.92 43.4 116.266 41.8933 117.173 39.92C118.106 37.9467 118.573 35.56 118.573 32.76C118.573 29.9867 118.106 27.6267 117.173 25.68C116.24 23.7333 114.866 22.2667 113.053 21.28C111.266 20.2667 109.053 19.76 106.413 19.76H99.9331ZM106.173 43.28H103.253V22.48H106.173C108.173 22.48 109.826 22.88 111.133 23.68C112.466 24.4533 113.466 25.6133 114.133 27.16C114.8 28.7067 115.133 30.5733 115.133 32.76C115.133 34.9733 114.8 36.8667 114.133 38.44C113.466 39.9867 112.466 41.1867 111.133 42.04C109.826 42.8667 108.173 43.28 106.173 43.28ZM125.798 19.76V46H142.077V43.16H129.077V19.76H125.798ZM148.982 19.76V46H165.622V43.16H152.342V33.64H163.222V30.8H152.342V22.56H165.222V19.76H148.982Z" fill="white"/>
</svg>
