<svg width="223" height="45" viewBox="0 0 223 45" fill="none" xmlns="http://www.w3.org/2000/svg">
<g clip-path="url(#clip0_154_69)">
<path d="M148.243 0.0185547H187.086V7.1437H171.678V44.6281H163.973V7.1437H148.243V0.0185547Z" fill="#AD6868"/>
<path d="M84.3619 0.0185547V7.1437H53.2269V18.6059H78.2656V25.731H53.2269V37.503H84.3619V44.6281H45.5226V7.1437H45.5193V0.0185547H84.3619Z" fill="#AD6868"/>
<path d="M103.757 0.0372314H93.6747L129.788 44.6468H139.9L121.841 22.3574L139.871 0.0712657L129.788 0.0867514L116.793 16.1267L103.757 0.0372314Z" fill="#AD6868"/>
<path d="M114.104 31.902L109.054 25.6628L93.6458 44.6808H103.757L114.104 31.902Z" fill="#AD6868"/>
<path fill-rule="evenodd" clip-rule="evenodd" d="M45.7925 44.6282L9.63037 0H0V44.6096H7.70431V9.53527L36.1139 44.6282H45.7925Z" fill="#AD6868"/>
<path d="M188.818 44.3557C188.254 44.3557 187.774 44.1615 187.372 43.773C186.97 43.3845 186.772 42.9141 186.777 42.3569C186.772 41.815 186.97 41.3497 187.372 40.9612C187.774 40.5727 188.254 40.3784 188.818 40.3784C189.361 40.3784 189.836 40.5727 190.238 40.9612C190.645 41.3497 190.848 41.815 190.854 42.3569C190.848 42.7249 190.754 43.0623 190.567 43.3639C190.374 43.6707 190.128 43.911 189.82 44.0848C189.517 44.2638 189.183 44.3557 188.818 44.3557Z" fill="#AD6868"/>
<path d="M201.968 25.563H205.382V38.6351C205.377 39.8365 205.115 40.8641 204.604 41.7281C204.087 42.592 203.372 43.2514 202.453 43.7167C201.54 44.1767 200.47 44.412 199.253 44.412C198.141 44.412 197.144 44.2126 196.257 43.824C195.37 43.4355 194.665 42.8527 194.148 42.0859C193.626 41.319 193.37 40.363 193.37 39.2179H196.79C196.795 39.7189 196.91 40.1534 197.129 40.5164C197.348 40.8794 197.65 41.1554 198.037 41.3497C198.428 41.5439 198.878 41.6411 199.383 41.6411C199.932 41.6411 200.402 41.5286 200.783 41.2985C201.164 41.0736 201.456 40.7362 201.66 40.2863C201.858 39.8416 201.963 39.2895 201.968 38.6351V25.563Z" fill="#AD6868"/>
<path d="M219.429 30.6753C219.346 29.8829 218.98 29.2643 218.344 28.8246C217.701 28.3799 216.871 28.16 215.853 28.16C215.138 28.16 214.523 28.2674 214.011 28.477C213.499 28.6917 213.103 28.978 212.831 29.341C212.56 29.7039 212.424 30.1181 212.413 30.5833C212.413 30.9718 212.507 31.3092 212.69 31.5904C212.873 31.8767 213.118 32.1169 213.436 32.3112C213.749 32.5106 214.099 32.6742 214.481 32.8071C214.867 32.94 215.253 33.0525 215.639 33.1445L217.419 33.5791C218.135 33.7426 218.829 33.9625 219.492 34.2437C220.155 34.5197 220.755 34.8725 221.282 35.2968C221.81 35.7211 222.227 36.2323 222.535 36.8305C222.843 37.4286 223 38.129 223 38.9367C223 40.0256 222.718 40.9816 222.149 41.8098C221.58 42.6328 220.76 43.277 219.685 43.7422C218.615 44.2024 217.32 44.4375 215.796 44.4375C214.324 44.4375 213.04 44.2126 211.959 43.7627C210.874 43.318 210.028 42.6635 209.417 41.8047C208.806 40.9458 208.477 39.8978 208.43 38.6657H211.813C211.86 39.3099 212.069 39.8467 212.424 40.2812C212.784 40.7107 213.254 41.0276 213.828 41.2423C214.408 41.4519 215.055 41.5593 215.77 41.5593C216.517 41.5593 217.174 41.4468 217.743 41.227C218.307 41.0071 218.751 40.7005 219.069 40.3017C219.393 39.908 219.555 39.4428 219.56 38.9112C219.555 38.4255 219.408 38.0216 219.126 37.7046C218.839 37.3877 218.443 37.1219 217.936 36.9071C217.425 36.6924 216.83 36.4982 216.151 36.3295L213.99 35.7875C212.429 35.3939 211.192 34.7958 210.288 33.9932C209.381 33.1905 208.931 32.1272 208.931 30.7929C208.931 29.6989 209.234 28.7378 209.845 27.9147C210.45 27.0916 211.281 26.4526 212.33 25.9976C213.384 25.5375 214.575 25.3125 215.9 25.3125C217.247 25.3125 218.427 25.5375 219.445 25.9976C220.463 26.4526 221.262 27.0865 221.841 27.8942C222.42 28.702 222.723 29.6273 222.739 30.6753H219.429Z" fill="#AD6868"/>
</g>
<defs>
<clipPath id="clip0_154_69">
<rect width="223" height="45" fill="white"/>
</clipPath>
</defs>
</svg>
