<svg width="103" height="91" viewBox="0 0 103 91" fill="none" xmlns="http://www.w3.org/2000/svg">
<g clip-path="url(#clip0_154_62)">
<path d="M51.5 54.6163C56.5702 54.6163 60.6805 50.5348 60.6805 45.5C60.6805 40.4653 56.5702 36.3838 51.5 36.3838C46.4298 36.3838 42.3196 40.4653 42.3196 45.5C42.3196 50.5348 46.4298 54.6163 51.5 54.6163Z" fill="white"/>
<path d="M51.5 64.1771C78.706 64.1771 100.761 55.815 100.761 45.4999C100.761 35.1848 78.706 26.8228 51.5 26.8228C24.294 26.8228 2.23914 35.1848 2.23914 45.4999C2.23914 55.815 24.294 64.1771 51.5 64.1771Z" stroke="white" stroke-width="3.5"/>
<path d="M35.2112 54.8385C48.8142 78.2348 67.1344 93.0203 76.1304 87.8628C85.1265 82.7052 81.3918 59.5577 67.7888 36.1613C54.1858 12.765 35.8656 -2.02051 26.8696 3.13705C17.8735 8.29461 21.6082 31.4421 35.2112 54.8385Z" stroke="white" stroke-width="3.5"/>
<path d="M35.2112 36.1614C21.6082 59.5577 17.8735 82.7053 26.8695 87.8628C35.8656 93.0204 54.1858 78.2349 67.7888 54.8386C81.3918 31.4422 85.1265 8.29468 76.1304 3.13712C67.1344 -2.02044 48.8142 12.765 35.2112 36.1614Z" stroke="white" stroke-width="3.5"/>
</g>
<defs>
<clipPath id="clip0_154_62">
<rect width="103" height="91" fill="white"/>
</clipPath>
</defs>
</svg>
