<svg width="111" height="109" viewBox="0 0 111 109" fill="none" xmlns="http://www.w3.org/2000/svg">
<g filter="url(#filter0_d_155_79)">
<path d="M76.9113 74.1967C81.0075 73.7727 84.115 70.2415 83.9737 66.0035C83.8327 61.766 80.3011 58.3758 76.0636 58.3758H75.7813C71.402 58.5171 68.0122 62.1897 68.1536 66.5685C68.2949 68.6875 69.1422 70.5238 70.4135 71.7951C65.611 81.2595 58.2659 88.181 47.2483 93.9725C39.7618 97.9278 31.9931 99.3404 24.2244 98.3518C17.868 97.5041 12.9241 94.6793 9.81612 90.0173C5.29634 83.0958 4.87272 75.6089 8.68661 68.1225C11.3706 62.7546 15.6076 58.7994 18.2916 56.8218C17.7266 54.9855 16.8789 51.8779 16.4553 49.618C-4.02636 64.45 -1.90738 84.5085 4.30775 93.9725C8.96888 101.036 18.4329 105.415 28.8856 105.415C31.7104 105.415 34.5353 105.132 37.3606 104.426C55.441 100.894 69.1426 90.1586 76.9113 74.1967ZM101.772 56.6808C91.0365 44.1088 75.2164 37.1873 57.1359 37.1873H54.8761C53.6048 34.6447 50.9208 32.9494 47.9546 32.9494H47.6719C43.2935 33.0907 39.9036 36.7633 40.0445 41.1426C40.1859 45.3801 43.7171 48.7704 47.9546 48.7704H48.2369C51.3444 48.629 54.0284 46.6514 55.1583 43.9674H57.7009C68.4363 43.9674 78.6062 47.075 87.788 53.1492C94.8504 57.8108 99.9356 63.885 102.76 71.2301C105.162 77.163 105.02 82.9545 102.478 87.8987C98.5229 95.3852 91.8841 99.4818 83.1264 99.4818C77.4763 99.4818 72.1088 97.7864 69.2835 96.5151C67.7299 97.9278 64.9046 100.188 62.927 101.601C69.0012 104.426 75.2164 105.98 81.1488 105.98C94.709 105.98 104.738 98.4927 108.552 91.0063C112.648 82.8131 112.365 68.6875 101.772 56.6808ZM30.0155 76.5975C30.1569 80.8355 33.6881 84.2253 37.9256 84.2253H38.2083C42.5871 84.0844 45.977 80.4114 45.8356 76.0326C45.6947 71.7946 42.1631 68.4048 37.9256 68.4048H37.6433C37.3606 68.4048 36.9365 68.4048 36.6547 68.5457C30.8632 58.9403 28.462 48.4877 29.3096 37.1869C29.8742 28.7114 32.6995 21.3659 37.6433 15.2917C41.7395 10.0652 49.6495 7.52259 55.0174 7.38167C69.9898 7.09897 76.3459 25.7448 76.7699 33.2317C78.6062 33.6553 81.7138 34.6443 83.8327 35.3506C82.1374 12.4673 68.0122 0.601562 54.4524 0.601562C41.7395 0.601562 30.0155 9.78334 25.354 23.344C18.8566 41.4249 23.0941 58.7994 31.0041 72.5014C30.2982 73.49 29.8742 75.0435 30.0155 76.5975Z" fill="white"/>
</g>
<defs>
<filter id="filter0_d_155_79" x="-4" y="0.601562" width="119" height="113.378" filterUnits="userSpaceOnUse" color-interpolation-filters="sRGB">
<feFlood flood-opacity="0" result="BackgroundImageFix"/>
<feColorMatrix in="SourceAlpha" type="matrix" values="0 0 0 0 0 0 0 0 0 0 0 0 0 0 0 0 0 0 127 0" result="hardAlpha"/>
<feOffset dy="4"/>
<feGaussianBlur stdDeviation="2"/>
<feComposite in2="hardAlpha" operator="out"/>
<feColorMatrix type="matrix" values="0 0 0 0 0 0 0 0 0 0 0 0 0 0 0 0 0 0 0.25 0"/>
<feBlend mode="normal" in2="BackgroundImageFix" result="effect1_dropShadow_155_79"/>
<feBlend mode="normal" in="SourceGraphic" in2="effect1_dropShadow_155_79" result="shape"/>
</filter>
</defs>
</svg>
