<svg width="111" height="111" viewBox="0 0 111 111" fill="none" xmlns="http://www.w3.org/2000/svg">
<g clip-path="url(#clip0_155_78)">
<path d="M76.9113 76.1967C81.0075 75.7727 84.115 72.2415 83.9737 68.0035C83.8328 63.766 80.3011 60.3758 76.0636 60.3758H75.7813C71.402 60.5171 68.0122 64.1897 68.1536 68.5685C68.2949 70.6875 69.1422 72.5238 70.4135 73.7951C65.611 83.2595 58.2659 90.181 47.2483 95.9725C39.7618 99.9278 31.9931 101.34 24.2244 100.352C17.868 99.5041 12.9241 96.6793 9.81612 92.0173C5.29634 85.0958 4.87272 77.609 8.68661 70.1225C11.3706 64.7546 15.6076 60.7994 18.2916 58.8218C17.7266 56.9855 16.8789 53.8779 16.4553 51.618C-4.02636 66.45 -1.90738 86.5085 4.30775 95.9725C8.96888 103.036 18.4329 107.415 28.8856 107.415C31.7104 107.415 34.5353 107.132 37.3606 106.426C55.441 102.894 69.1426 92.1586 76.9113 76.1967ZM101.772 58.6808C91.0365 46.1088 75.2164 39.1873 57.1359 39.1873H54.8761C53.6048 36.6447 50.9208 34.9494 47.9546 34.9494H47.6719C43.2935 35.0907 39.9036 38.7633 40.0445 43.1426C40.1859 47.3801 43.7171 50.7704 47.9546 50.7704H48.2369C51.3444 50.629 54.0284 48.6514 55.1583 45.9674H57.7009C68.4363 45.9674 78.6062 49.075 87.788 55.1492C94.8504 59.8108 99.9356 65.885 102.76 73.2301C105.162 79.163 105.02 84.9545 102.478 89.8987C98.5229 97.3852 91.8842 101.482 83.1264 101.482C77.4763 101.482 72.1088 99.7864 69.2835 98.5151C67.7299 99.9278 64.9046 102.188 62.927 103.601C69.0012 106.426 75.2164 107.98 81.1488 107.98C94.709 107.98 104.738 100.493 108.552 93.0063C112.648 84.8131 112.365 70.6875 101.772 58.6808ZM30.0155 78.5975C30.1569 82.8355 33.6881 86.2253 37.9256 86.2253H38.2083C42.5871 86.0844 45.977 82.4114 45.8356 78.0326C45.6947 73.7946 42.1631 70.4048 37.9256 70.4048H37.6433C37.3606 70.4048 36.9365 70.4048 36.6547 70.5457C30.8632 60.9403 28.462 50.4877 29.3096 39.1869C29.8742 30.7114 32.6995 23.3659 37.6433 17.2917C41.7395 12.0652 49.6495 9.52259 55.0174 9.38167C69.9898 9.09897 76.3459 27.7448 76.7699 35.2317C78.6062 35.6553 81.7138 36.6443 83.8327 37.3506C82.1374 14.4673 68.0122 2.60156 54.4524 2.60156C41.7395 2.60156 30.0155 11.7833 25.354 25.344C18.8566 43.4249 23.0941 60.7994 31.0041 74.5014C30.2982 75.49 29.8742 77.0435 30.0155 78.5975Z" fill="#AD6868"/>
</g>
<defs>
<clipPath id="clip0_155_78">
<rect width="111" height="111" fill="white"/>
</clipPath>
</defs>
</svg>
