<svg width="101" height="101" viewBox="0 0 101 101" fill="none" xmlns="http://www.w3.org/2000/svg">
<path d="M86.9042 56.5436C87.0273 56.5405 87.1725 56.5373 87.3208 56.5373C89.9531 56.5373 92.4434 57.1496 94.6528 58.2417L94.5549 58.1975C96.5686 59.1791 98.2225 60.631 99.4187 62.4111L99.4471 62.4553C100.391 63.8314 100.953 65.5326 100.953 67.3633C100.953 67.4958 100.95 67.6284 100.943 67.7578V67.7388C100.845 69.5663 100.015 71.1792 98.7401 72.3091L98.7338 72.3154C98.0363 73.0003 97.1936 73.5369 96.2562 73.8778L96.2088 73.8935C95.6828 73.9987 95.3934 73.9198 95.3408 73.6568C95.2882 73.3938 95.525 73.1045 96.051 72.7889C97.4776 71.924 98.5097 70.529 98.8853 68.8846L98.8948 68.8435C98.9043 68.711 98.9106 68.5563 98.9106 68.3985C98.9106 67.4169 98.677 66.489 98.2635 65.6683L98.2793 65.7031C97.5944 64.2733 96.5718 63.0992 95.3124 62.2501L95.2809 62.2312C93.3966 61.0192 91.1367 60.2238 88.7064 60.025L88.6559 60.0218C87.829 59.8987 86.8758 59.8293 85.9037 59.8293C83.3755 59.8293 80.961 60.3059 78.739 61.1738L78.8715 61.1265C79.3292 62.1965 79.6164 63.4369 79.6574 64.7373V64.753C79.6069 67.4201 78.174 69.7399 76.0435 71.034L76.0088 71.0529C75.0304 71.7473 73.9131 72.3564 72.7232 72.8299L72.6127 72.8678C71.8899 73.2213 71.0409 73.4264 70.1445 73.4264C70.0403 73.4264 69.9393 73.4233 69.8383 73.4169H69.8541C67.8573 72.9982 67.3838 71.2623 68.4338 68.2091C68.8915 66.8803 69.5322 65.7283 70.3433 64.7152L70.3244 64.7373C71.3628 63.3801 72.5022 62.1902 73.7616 61.136L73.7963 61.1076L73.487 60.6468C72.9094 59.662 72.3791 58.5163 71.953 57.3201L71.9088 57.1749C71.5932 56.1228 71.3302 55.1244 71.1198 54.1796L70.962 53.0749L69.3838 56.0702C68.0161 58.5952 66.701 60.8035 65.4385 62.6952L64.9651 63.4842C65.4953 64.772 65.8867 66.2649 66.0635 67.8241L66.0698 67.903C66.0824 68.0513 66.0887 68.2281 66.0887 68.4048C66.0887 70.7973 64.9083 72.9119 63.0966 74.2029L63.0745 74.2186C62.2097 74.752 61.1776 75.3044 60.1076 75.7968L59.9182 75.8757C58.8041 76.3586 57.5132 76.6742 56.1592 76.7436H56.1308C56.0266 76.7499 55.9035 76.7563 55.7804 76.7563C54.9913 76.7563 54.2433 76.5763 53.5742 76.2576L53.6057 76.2702C53.2049 75.9262 52.9524 75.4212 52.9524 74.8562C52.9524 74.569 53.0187 74.2944 53.1355 74.0513L53.1292 74.064C54.3917 72.2933 55.6352 70.7531 56.9577 69.2823L56.9167 69.3296L60.3885 64.914L59.7604 63.4937C59.2554 62.5658 58.7725 61.4705 58.3843 60.3343L58.3401 60.1828C58.0245 59.1307 57.7615 58.1323 57.5511 57.1875L57.3933 56.0828L55.8151 59.8703C54.5547 62.814 53.3974 65.338 52.3432 67.4422C50.7714 70.5984 49.4563 73.0182 48.3979 74.7015L48.0823 75.175C46.8219 77.1718 45.612 78.1703 44.4526 78.1703C43.2932 78.1703 42.5073 77.4338 42.0949 75.9609C41.7919 74.8751 41.6152 73.6284 41.6152 72.3407C41.6152 72.227 41.6152 72.1134 41.6183 71.9998V72.0156L41.9339 69.8062V69.964C41.0923 71.9609 40.2506 73.801 39.4089 75.4843C38.8503 76.5764 38.2758 77.5074 37.632 78.3849L37.673 78.3249C37.0228 79.0067 36.1075 79.4296 35.0943 79.4296C35.0849 79.4296 35.0786 79.4296 35.0691 79.4296C35.0028 79.4359 34.9271 79.4359 34.8513 79.4359C34.0528 79.4359 33.3268 79.1329 32.7777 78.6374L32.7808 78.6405C31.6793 77.5106 30.8618 76.0998 30.4389 74.5248L30.4231 74.4585C29.9055 73.0224 29.6088 71.3622 29.6088 69.6326C29.6088 69.4085 29.6151 69.1876 29.6246 68.9698V69.0013C29.8739 66.489 30.3758 64.1881 31.1112 61.9945L31.0449 62.2186L25.3668 65.5326V65.6904C26.1906 67.4011 26.6735 69.4085 26.6735 71.5295C26.6735 71.9177 26.6577 72.3028 26.6261 72.6815L26.6293 72.631C26.462 75.882 25.4236 78.8583 23.7476 81.3738L23.7887 81.3107C22.0306 84.1008 19.4962 86.2566 16.4851 87.5033L16.3809 87.5412C14.686 88.3018 12.7039 88.7469 10.6208 88.7469C9.30147 88.7469 8.02003 88.5701 6.80803 88.2355L6.90903 88.2576C5.90534 87.9199 5.08472 87.2508 4.56394 86.386L4.55447 86.367C3.81906 85.3002 3.35509 83.9967 3.2825 82.5922V82.5732C3.24778 82.2544 3.22884 81.8852 3.22884 81.5096C3.22884 79.8904 3.59813 78.3565 4.25778 76.9898L4.22938 77.0529C6.04106 73.963 8.54712 71.4601 11.5392 69.6989L11.6339 69.6484C13.7518 68.1807 16.1853 66.7573 18.726 65.5168L19.0606 65.3685L19.8497 64.8951C18.9028 64.1586 17.1668 62.8961 14.6418 61.1076C11.2678 58.8477 8.33566 56.5657 5.57078 54.0975L5.64969 54.167C2.97634 51.8661 1.02894 48.7919 0.154656 45.2916L0.129406 45.1717C0.0473437 44.6856 0 44.1269 0 43.5588C0 41.7787 0.457656 40.1059 1.25934 38.6508L1.23409 38.7045C3.00159 34.9044 5.45084 31.7008 8.45559 29.1253L8.49347 29.0937C11.7444 26.0227 15.4246 23.3493 19.4204 21.1842L19.695 21.0484C23.2647 18.9874 27.4341 17.0716 31.7803 15.5345L32.3168 15.3703C36.3537 13.8932 41.0155 13.0284 45.8761 13.0126H45.8824C46.1033 13.0063 46.3653 13 46.6273 13C50.5442 13 54.2496 13.9058 57.5448 15.5187L57.3996 15.4524C60.2402 16.7465 62.3675 19.1831 63.2197 22.1626L63.2386 22.2383C63.5006 23.2547 63.6489 24.4225 63.6489 25.625C63.6489 27.6198 63.2355 29.5198 62.4937 31.2431L62.5285 31.1516C61.1776 34.4246 59.2554 37.2116 56.8567 39.5062L56.8472 39.5157C54.4169 41.9239 51.5037 43.8492 48.2685 45.1338L48.0949 45.1938C44.7051 46.6488 40.7693 47.5641 36.6378 47.7156L36.5778 47.7188C35.9718 47.7882 35.2711 47.8261 34.5609 47.8261C32.6924 47.8261 30.8902 47.5578 29.1858 47.0559L29.3216 47.0907C27.7971 46.6046 26.4809 45.8503 25.3636 44.8718L25.3762 44.8813C24.5935 44.2437 23.9559 43.4578 23.5014 42.5646L23.4825 42.5236C23.1669 41.6819 23.1406 41.1822 23.4036 41.0243C23.6666 40.8665 23.8507 40.8402 23.9559 40.9454L24.745 41.7345C25.6256 42.552 26.6766 43.1958 27.8381 43.6062L27.9013 43.6251C29.4983 44.1806 31.3416 44.5025 33.2574 44.5025C33.8729 44.5025 34.4789 44.471 35.0754 44.4047L35.0028 44.411C40.1096 43.8082 44.7146 42.0659 48.6883 39.4462L48.5715 39.5188C51.9298 37.5209 54.6473 34.775 56.56 31.5019L56.6168 31.3946C57.5668 29.9996 58.135 28.2763 58.135 26.4204C58.135 25.281 57.9203 24.1889 57.529 23.1852L57.5511 23.2452C56.3706 21.3798 54.4611 20.0668 52.2328 19.7039L52.1886 19.6976C50.459 19.2715 48.4705 19.0253 46.4284 19.0253C44.784 19.0253 43.1743 19.1831 41.6183 19.4861L41.7761 19.4608C36.4515 20.4203 31.6919 22.0648 27.3016 24.3246L27.5888 24.1889C14.6524 30.7118 7.97269 37.3915 7.54975 44.2279V44.3826C7.54975 47.138 8.63234 49.6409 10.3967 51.4905L10.3935 51.4873C12.4041 53.7219 14.6261 55.6946 17.0532 57.399L17.1763 57.481C19.3888 59.1349 21.3457 60.8424 23.1669 62.6857L23.17 62.692L23.4857 63.0076L33.5857 57.4873C34.7377 55.8208 36.1233 54.4132 37.714 53.2769L37.7645 53.2422C39.027 52.1817 40.6304 51.4905 42.3884 51.3516L42.4168 51.3484C42.48 51.3421 42.5526 51.3421 42.6283 51.3421C43.8056 51.3421 44.8156 52.0523 45.2512 53.0686L45.2575 53.0875C45.5889 53.8293 45.7814 54.6972 45.7814 55.6094C45.7814 55.8871 45.7625 56.1617 45.7278 56.4332L45.7309 56.4016L45.4248 57.9576L45.8982 57.642C46.2264 57.3927 46.6399 57.2443 47.0881 57.2443C47.3722 57.2443 47.6404 57.3043 47.8835 57.4116L47.8708 57.4053C48.4768 57.5631 48.9156 58.106 48.9156 58.7498C48.9156 58.8603 48.9029 58.9676 48.8777 59.0718L48.8808 59.0623L48.4074 60.7983C47.4605 64.5836 46.8303 67.318 46.5168 69.0013C46.359 69.5474 46.2706 70.1755 46.2706 70.8257C46.2706 70.9614 46.2738 71.0939 46.2833 71.2265V71.2076C46.3359 71.8388 46.4148 72.1544 46.52 72.1544C46.6252 72.1544 46.8345 71.8388 47.1481 71.2076L47.6215 70.1029C47.7267 70.1029 47.7267 70.1555 47.6215 70.2607L49.3574 66.631C53.4606 57.5873 55.6689 52.5373 55.9824 51.481L56.9293 48.4857C57.0345 48.2753 57.4553 48.0659 58.1918 47.8576C58.9398 47.6556 59.7952 47.5388 60.6789 47.5388C60.7515 47.5388 60.8241 47.5388 60.8935 47.542H60.8841C62.357 47.542 63.0934 47.9102 63.0934 48.6467L62.9356 49.4358C62.5821 50.4079 62.2318 51.623 61.9603 52.8666L61.9256 53.0654C61.8625 53.4726 61.8246 53.9397 61.8246 54.4195C61.8246 55.057 61.8877 55.6788 62.0108 56.2817L62.0014 56.2217L62.1592 56.8498C62.4811 58.1659 62.9703 59.3211 63.6111 60.3753L63.5795 60.3217C64.8399 58.2196 66.0498 56.0639 67.2092 53.8545C68.1245 52.33 68.9767 50.5625 69.6616 48.713L69.7342 48.492C69.9709 47.3021 70.2423 46.2984 70.5737 45.32L70.5232 45.4968C70.6285 45.1811 71.0777 44.9444 71.871 44.7866C72.6222 44.6351 73.4838 44.5499 74.3644 44.5499H74.478H74.4717C75.9446 44.5499 76.7305 44.9181 76.8294 45.6546L76.5138 46.2827C76.1382 47.3432 75.81 48.6183 75.589 49.9281L75.5701 50.0702C75.5417 50.3763 75.5227 50.7298 75.5227 51.0896C75.5227 51.844 75.5985 52.5825 75.7405 53.2958L75.7279 53.2233V53.8513C76.0909 55.2275 76.6306 56.4363 77.3376 57.5315L77.306 57.481L77.7795 58.5857C80.4149 57.2917 83.5144 56.5342 86.7906 56.5342H86.9137H86.9073L86.9042 56.5436ZM19.2373 79.4359C21.4309 77.1697 22.785 74.0766 22.785 70.6678C22.785 69.3517 22.583 68.0829 22.2105 66.8898L22.2358 66.9782L19.7108 68.5563C17.1353 70.024 14.907 71.6621 12.8901 73.5243L12.9154 73.5022C11.3846 74.9099 10.2547 76.731 9.69916 78.7857L9.68022 78.8646C9.20678 80.811 9.4435 82.0735 10.3904 82.6521C10.968 82.9173 11.6466 83.0719 12.3567 83.0719C13.1332 83.0719 13.8686 82.8888 14.5156 82.5606L14.4872 82.5732C16.362 81.8915 17.9496 80.8089 19.2121 79.4233L19.2216 79.4138L19.2373 79.4359ZM40.3748 64.9045C40.9008 63.5368 41.4794 61.9061 42.1107 60.0123C42.9524 57.4873 43.2417 56.0155 42.9787 55.5968C42.7156 55.178 42.2159 55.1254 41.4794 55.4389C40.602 55.865 39.8666 56.4489 39.2795 57.1654L39.2701 57.178C38.6136 58.0081 37.9886 58.9361 37.4331 59.9113L37.3763 60.0187C36.7388 61.0634 36.199 62.2659 35.8234 63.541L35.795 63.6484C35.1859 65.2991 34.8324 67.2086 34.8324 69.197C34.8324 69.4653 34.8387 69.7304 34.8513 69.9956V69.9577C34.9565 72.0598 35.2932 73.1907 35.8613 73.3507C36.4294 73.5106 37.087 72.7478 37.834 71.0624C38.5568 69.7588 39.2006 68.2438 39.6804 66.6563L39.7246 66.4858C40.0381 65.7409 40.2527 65.2138 40.3684 64.9045H40.3748ZM57.8793 73.2686C60.0666 72.287 61.6068 70.2197 61.8215 67.7736L61.8246 67.7483V67.5905L60.0887 69.7999L56.9356 73.2718C56.8882 73.3096 56.8567 73.3664 56.8567 73.4296C56.8567 73.4927 56.8883 73.5495 56.9324 73.5874C57.0334 73.6905 57.3491 73.5853 57.8793 73.2718V73.2686ZM71.448 70.2702C73.8342 69.5884 75.5512 67.4264 75.5512 64.8667C75.5512 64.8256 75.5512 64.7846 75.5512 64.7436V64.7499C75.5196 64.1186 75.406 63.5253 75.2197 62.9634L75.2324 63.0108C74.0046 64.1028 72.9977 65.4095 72.2687 66.8835L72.2339 66.9561C71.285 68.8477 71.0198 69.9503 71.4386 70.2638L71.448 70.2702Z" fill="#AD6868"/>
</svg>
