<svg width="101" height="76" viewBox="0 0 101 76" fill="none" xmlns="http://www.w3.org/2000/svg">
<path d="M86.9042 43.5436C87.0273 43.5405 87.1725 43.5373 87.3208 43.5373C89.9531 43.5373 92.4434 44.1496 94.6528 45.2417L94.5549 45.1975C96.5686 46.1791 98.2225 47.631 99.4187 49.4111L99.4471 49.4553C100.391 50.8314 100.953 52.5326 100.953 54.3633C100.953 54.4958 100.95 54.6284 100.943 54.7578V54.7388C100.845 56.5663 100.015 58.1792 98.7401 59.3091L98.7338 59.3154C98.0363 60.0003 97.1936 60.5369 96.2562 60.8778L96.2088 60.8935C95.6828 60.9987 95.3934 60.9198 95.3408 60.6568C95.2882 60.3938 95.525 60.1045 96.051 59.7888C97.4776 58.924 98.5097 57.529 98.8853 55.8846L98.8948 55.8435C98.9043 55.711 98.9106 55.5563 98.9106 55.3985C98.9106 54.4169 98.677 53.489 98.2635 52.6684L98.2793 52.7031C97.5944 51.2733 96.5718 50.0992 95.3124 49.2501L95.2809 49.2312C93.3966 48.0192 91.1367 47.2238 88.7064 47.025L88.6559 47.0218C87.829 46.8987 86.8758 46.8293 85.9037 46.8293C83.3755 46.8293 80.961 47.3059 78.739 48.1738L78.8715 48.1265C79.3292 49.1965 79.6164 50.4369 79.6574 51.7373V51.753C79.6069 54.4201 78.174 56.7399 76.0435 58.034L76.0088 58.0529C75.0304 58.7473 73.9131 59.3564 72.7232 59.8299L72.6127 59.8678C71.8899 60.2213 71.0409 60.4264 70.1445 60.4264C70.0403 60.4264 69.9393 60.4233 69.8383 60.4169H69.8541C67.8573 59.9982 67.3838 58.2623 68.4338 55.2091C68.8915 53.8803 69.5322 52.7283 70.3433 51.7152L70.3244 51.7373C71.3628 50.3801 72.5022 49.1902 73.7616 48.136L73.7963 48.1076L73.487 47.6468C72.9094 46.662 72.3791 45.5163 71.953 44.3201L71.9088 44.1749C71.5932 43.1228 71.3302 42.1244 71.1198 41.1796L70.962 40.0749L69.3838 43.0702C68.0161 45.5952 66.701 47.8035 65.4385 49.6952L64.9651 50.4842C65.4953 51.772 65.8867 53.2649 66.0635 54.8241L66.0698 54.903C66.0824 55.0513 66.0887 55.2281 66.0887 55.4048C66.0887 57.7973 64.9083 59.9119 63.0966 61.2029L63.0745 61.2186C62.2097 61.752 61.1776 62.3044 60.1076 62.7968L59.9182 62.8757C58.8041 63.3586 57.5132 63.6742 56.1592 63.7436H56.1308C56.0266 63.7499 55.9035 63.7563 55.7804 63.7563C54.9913 63.7563 54.2433 63.5763 53.5742 63.2576L53.6057 63.2702C53.2049 62.9262 52.9524 62.4212 52.9524 61.8562C52.9524 61.569 53.0187 61.2944 53.1355 61.0513L53.1292 61.064C54.3917 59.2933 55.6352 57.7531 56.9577 56.2823L56.9167 56.3296L60.3885 51.914L59.7604 50.4937C59.2554 49.5658 58.7725 48.4705 58.3843 47.3343L58.3401 47.1828C58.0245 46.1307 57.7615 45.1323 57.5511 44.1875L57.3932 43.0828L55.8151 46.8703C54.5547 49.814 53.3974 52.338 52.3433 54.4422C50.7714 57.5984 49.4563 60.0182 48.3979 61.7015L48.0823 62.175C46.8219 64.1718 45.612 65.1703 44.4526 65.1703C43.2932 65.1703 42.5073 64.4338 42.0949 62.9609C41.7919 61.8751 41.6152 60.6284 41.6152 59.3407C41.6152 59.227 41.6152 59.1134 41.6183 58.9998V59.0156L41.9339 56.8062V56.964C41.0923 58.9609 40.2506 60.801 39.4089 62.4843C38.8503 63.5764 38.2758 64.5074 37.632 65.3849L37.673 65.3249C37.0228 66.0067 36.1075 66.4296 35.0943 66.4296C35.0849 66.4296 35.0786 66.4296 35.0691 66.4296C35.0028 66.4359 34.9271 66.4359 34.8513 66.4359C34.0528 66.4359 33.3268 66.1329 32.7777 65.6374L32.7808 65.6405C31.6793 64.5106 30.8618 63.0998 30.4389 61.5248L30.4231 61.4585C29.9055 60.0224 29.6088 58.3622 29.6088 56.6326C29.6088 56.4085 29.6151 56.1876 29.6246 55.9698V56.0013C29.8739 53.489 30.3758 51.1881 31.1112 48.9945L31.0449 49.2186L25.3668 52.5326V52.6904C26.1906 54.4011 26.6735 56.4085 26.6735 58.5295C26.6735 58.9177 26.6577 59.3028 26.6261 59.6815L26.6293 59.631C26.462 62.882 25.4236 65.8583 23.7476 68.3738L23.7887 68.3107C22.0306 71.1008 19.4962 73.2566 16.4851 74.5033L16.3809 74.5412C14.686 75.3018 12.7039 75.7468 10.6208 75.7468C9.30147 75.7468 8.02003 75.5701 6.80803 75.2355L6.90903 75.2576C5.90534 74.9199 5.08472 74.2508 4.56394 73.386L4.55447 73.367C3.81906 72.3002 3.35509 70.9967 3.2825 69.5922V69.5732C3.24778 69.2544 3.22884 68.8852 3.22884 68.5096C3.22884 66.8904 3.59813 65.3565 4.25778 63.9898L4.22937 64.0529C6.04106 60.963 8.54712 58.4601 11.5392 56.6989L11.6339 56.6484C13.7518 55.1807 16.1852 53.7573 18.726 52.5168L19.0606 52.3685L19.8497 51.8951C18.9028 51.1586 17.1668 49.8961 14.6418 48.1076C11.2678 45.8477 8.33566 43.5657 5.57078 41.0975L5.64969 41.167C2.97634 38.8661 1.02894 35.7919 0.154656 32.2916L0.129406 32.1717C0.0473437 31.6856 0 31.1269 0 30.5588C0 28.7787 0.457656 27.1059 1.25934 25.6508L1.23409 25.7045C3.00159 21.9044 5.45084 18.7008 8.45559 16.1253L8.49347 16.0937C11.7444 13.0227 15.4246 10.3493 19.4204 8.18416L19.695 8.04844C23.2647 5.98741 27.4341 4.07156 31.7803 2.53447L32.3168 2.37034C36.3537 0.893219 41.0155 0.0284063 45.8761 0.012625H45.8824C46.1033 0.0063125 46.3653 0 46.6273 0C50.5442 0 54.2496 0.905844 57.5448 2.51869L57.3996 2.45241C60.2402 3.74647 62.3675 6.18309 63.2197 9.16259L63.2386 9.23834C63.5006 10.2547 63.6489 11.4225 63.6489 12.625C63.6489 14.6198 63.2355 16.5198 62.4937 18.2431L62.5285 18.1516C61.1776 21.4246 59.2554 24.2116 56.8567 26.5062L56.8472 26.5157C54.4169 28.9239 51.5037 30.8492 48.2685 32.1338L48.0949 32.1938C44.7051 33.6488 40.7693 34.5641 36.6378 34.7156L36.5778 34.7188C35.9718 34.7882 35.2711 34.8261 34.5609 34.8261C32.6924 34.8261 30.8902 34.5578 29.1858 34.0559L29.3216 34.0907C27.7971 33.6046 26.4809 32.8503 25.3636 31.8718L25.3762 31.8813C24.5935 31.2437 23.9559 30.4578 23.5014 29.5646L23.4825 29.5236C23.1669 28.6819 23.1406 28.1822 23.4036 28.0243C23.6666 27.8665 23.8507 27.8402 23.9559 27.9454L24.745 28.7345C25.6256 29.552 26.6766 30.1958 27.8381 30.6062L27.9013 30.6251C29.4983 31.1806 31.3416 31.5025 33.2574 31.5025C33.8729 31.5025 34.4789 31.471 35.0754 31.4047L35.0028 31.411C40.1096 30.8082 44.7146 29.0659 48.6883 26.4462L48.5715 26.5188C51.9298 24.5209 54.6473 21.775 56.56 18.5019L56.6168 18.3946C57.5668 16.9996 58.135 15.2763 58.135 13.4204C58.135 12.281 57.9203 11.1889 57.529 10.1852L57.5511 10.2452C56.3706 8.37984 54.4611 7.06684 52.2328 6.70388L52.1886 6.69756C50.459 6.27147 48.4705 6.02528 46.4284 6.02528C44.784 6.02528 43.1743 6.18309 41.6183 6.48609L41.7761 6.46084C36.4515 7.42034 31.6919 9.06475 27.3016 11.3246L27.5888 11.1889C14.6524 17.7118 7.97269 24.3915 7.54975 31.2279V31.3826C7.54975 34.138 8.63234 36.6409 10.3967 38.4905L10.3935 38.4873C12.4041 40.7219 14.6261 42.6946 17.0532 44.399L17.1763 44.481C19.3888 46.1349 21.3457 47.8424 23.1669 49.6857L23.17 49.692L23.4857 50.0076L33.5857 44.4873C34.7377 42.8208 36.1233 41.4132 37.714 40.2769L37.7645 40.2422C39.027 39.1817 40.6304 38.4905 42.3884 38.3516L42.4168 38.3484C42.48 38.3421 42.5526 38.3421 42.6283 38.3421C43.8056 38.3421 44.8156 39.0523 45.2512 40.0686L45.2575 40.0875C45.5889 40.8293 45.7814 41.6972 45.7814 42.6094C45.7814 42.8871 45.7625 43.1617 45.7278 43.4332L45.7309 43.4016L45.4248 44.9576L45.8982 44.642C46.2264 44.3927 46.6399 44.2443 47.0881 44.2443C47.3722 44.2443 47.6404 44.3043 47.8835 44.4116L47.8708 44.4053C48.4768 44.5631 48.9156 45.106 48.9156 45.7498C48.9156 45.8603 48.9029 45.9676 48.8777 46.0718L48.8808 46.0623L48.4074 47.7983C47.4605 51.5836 46.8303 54.318 46.5168 56.0013C46.359 56.5474 46.2706 57.1755 46.2706 57.8257C46.2706 57.9614 46.2738 58.0939 46.2833 58.2265V58.2076C46.3359 58.8388 46.4148 59.1544 46.52 59.1544C46.6252 59.1544 46.8345 58.8388 47.1481 58.2076L47.6215 57.1029C47.7267 57.1029 47.7267 57.1555 47.6215 57.2607L49.3574 53.631C53.4606 44.5873 55.6689 39.5373 55.9824 38.481L56.9293 35.4857C57.0345 35.2753 57.4553 35.0659 58.1918 34.8576C58.9398 34.6556 59.7952 34.5388 60.6789 34.5388C60.7515 34.5388 60.8241 34.5388 60.8935 34.542H60.8841C62.357 34.542 63.0934 34.9102 63.0934 35.6467L62.9356 36.4358C62.5821 37.4079 62.2318 38.623 61.9603 39.8666L61.9256 40.0654C61.8625 40.4726 61.8246 40.9397 61.8246 41.4195C61.8246 42.057 61.8877 42.6788 62.0108 43.2817L62.0014 43.2217L62.1592 43.8498C62.4811 45.1659 62.9703 46.3211 63.6111 47.3753L63.5795 47.3217C64.8399 45.2196 66.0498 43.0639 67.2092 40.8545C68.1245 39.33 68.9767 37.5625 69.6616 35.713L69.7342 35.492C69.9709 34.3021 70.2423 33.2984 70.5737 32.32L70.5232 32.4967C70.6285 32.1811 71.0777 31.9444 71.871 31.7866C72.6222 31.6351 73.4838 31.5499 74.3644 31.5499H74.478H74.4717C75.9446 31.5499 76.7305 31.9181 76.8294 32.6546L76.5138 33.2827C76.1382 34.3432 75.81 35.6183 75.589 36.9281L75.5701 37.0702C75.5417 37.3763 75.5228 37.7298 75.5228 38.0896C75.5228 38.844 75.5985 39.5825 75.7405 40.2958L75.7279 40.2233V40.8513C76.0909 42.2275 76.6306 43.4363 77.3376 44.5315L77.306 44.481L77.7795 45.5857C80.4149 44.2917 83.5144 43.5342 86.7906 43.5342H86.9137H86.9073L86.9042 43.5436ZM19.2373 66.4359C21.4309 64.1697 22.785 61.0766 22.785 57.6678C22.785 56.3517 22.583 55.0829 22.2105 53.8898L22.2358 53.9782L19.7108 55.5563C17.1353 57.024 14.907 58.6621 12.8901 60.5243L12.9154 60.5022C11.3846 61.9099 10.2547 63.731 9.69916 65.7857L9.68022 65.8646C9.20678 67.811 9.4435 69.0735 10.3904 69.6521C10.968 69.9173 11.6466 70.0719 12.3567 70.0719C13.1332 70.0719 13.8686 69.8888 14.5156 69.5606L14.4872 69.5732C16.362 68.8915 17.9496 67.8089 19.2121 66.4233L19.2216 66.4138L19.2373 66.4359ZM40.3748 51.9045C40.9008 50.5368 41.4794 48.9061 42.1107 47.0123C42.9524 44.4873 43.2417 43.0155 42.9787 42.5968C42.7156 42.178 42.2159 42.1254 41.4794 42.4389C40.602 42.865 39.8666 43.4489 39.2795 44.1654L39.2701 44.178C38.6136 45.0081 37.9886 45.9361 37.4331 46.9113L37.3763 47.0187C36.7388 48.0634 36.199 49.2659 35.8234 50.541L35.795 50.6483C35.1859 52.2991 34.8324 54.2086 34.8324 56.197C34.8324 56.4653 34.8387 56.7304 34.8513 56.9956V56.9577C34.9565 59.0598 35.2932 60.1907 35.8613 60.3507C36.4294 60.5106 37.087 59.7478 37.834 58.0624C38.5568 56.7588 39.2006 55.2438 39.6804 53.6563L39.7246 53.4858C40.0381 52.7409 40.2527 52.2138 40.3684 51.9045H40.3748ZM57.8793 60.2686C60.0666 59.287 61.6068 57.2197 61.8215 54.7736L61.8246 54.7483V54.5905L60.0887 56.7999L56.9356 60.2718C56.8882 60.3096 56.8567 60.3664 56.8567 60.4296C56.8567 60.4927 56.8882 60.5495 56.9324 60.5874C57.0334 60.6905 57.3491 60.5853 57.8793 60.2718V60.2686ZM71.448 57.2702C73.8342 56.5884 75.5512 54.4264 75.5512 51.8667C75.5512 51.8256 75.5512 51.7846 75.5512 51.7436V51.7499C75.5196 51.1186 75.406 50.5253 75.2197 49.9634L75.2324 50.0108C74.0046 51.1028 72.9977 52.4095 72.2687 53.8835L72.2339 53.9561C71.285 55.8477 71.0198 56.9503 71.4386 57.2638L71.448 57.2702Z" fill="white"/>
</svg>
