<svg width="101" height="101" viewBox="0 0 101 101" fill="none" xmlns="http://www.w3.org/2000/svg">
<g clip-path="url(#clip0_159_93)">
<path d="M86.901 56.1686C87.0241 56.1655 87.1693 56.1623 87.3177 56.1623C89.95 56.1623 92.4403 56.7746 94.6496 57.8667L94.5518 57.8225C96.5655 58.8041 98.2193 60.256 99.4156 62.0361L99.444 62.0803C100.388 63.4564 100.949 65.1576 100.949 66.9883C100.949 67.1208 100.946 67.2534 100.94 67.3828V67.3638C100.842 69.1913 100.012 70.8042 98.737 71.9341L98.7307 71.9404C98.0331 72.6253 97.1904 73.1619 96.253 73.5028L96.2057 73.5185C95.6796 73.6237 95.3903 73.5448 95.3377 73.2818C95.2851 73.0188 95.5218 72.7295 96.0478 72.4139C97.4745 71.549 98.5066 70.154 98.8822 68.5096L98.8916 68.4685C98.9011 68.336 98.9074 68.1813 98.9074 68.0235C98.9074 67.0419 98.6738 66.114 98.2604 65.2933L98.2762 65.3281C97.5912 63.8983 96.5686 62.7242 95.3093 61.8751L95.2777 61.8562C93.3934 60.6442 91.1336 59.8488 88.7033 59.65L88.6527 59.6468C87.8258 59.5237 86.8726 59.4543 85.9005 59.4543C83.3723 59.4543 80.9578 59.9309 78.7358 60.7988L78.8684 60.7515C79.326 61.8215 79.6132 63.0619 79.6543 64.3623V64.378C79.6038 67.0451 78.1708 69.3649 76.0404 70.659L76.0057 70.6779C75.0272 71.3723 73.9099 71.9814 72.72 72.4549L72.6095 72.4928C71.8867 72.8463 71.0377 73.0514 70.1413 73.0514C70.0372 73.0514 69.9362 73.0483 69.8352 73.0419H69.851C67.8541 72.6232 67.3807 70.8873 68.4307 67.8341C68.8883 66.5053 69.529 65.3533 70.3402 64.3402L70.3213 64.3623C71.3597 63.0051 72.4991 61.8152 73.7584 60.761L73.7931 60.7326L73.4838 60.2718C72.9062 59.287 72.376 58.1413 71.9499 56.9451L71.9057 56.7999C71.5901 55.7478 71.327 54.7494 71.1166 53.8046L70.9588 52.6999L69.3807 55.6952C68.013 58.2202 66.6979 60.4285 65.4354 62.3202L64.9619 63.1092C65.4922 64.397 65.8836 65.8899 66.0603 67.4491L66.0666 67.528C66.0792 67.6763 66.0856 67.8531 66.0856 68.0298C66.0856 70.4223 64.9051 72.5369 63.0934 73.8279L63.0713 73.8436C62.2065 74.377 61.1744 74.9294 60.1045 75.4218L59.9151 75.5007C58.8009 75.9836 57.51 76.2992 56.156 76.3686H56.1276C56.0234 76.3749 55.9003 76.3813 55.7773 76.3813C54.9882 76.3813 54.2402 76.2013 53.571 75.8826L53.6026 75.8952C53.2017 75.5512 52.9492 75.0462 52.9492 74.4812C52.9492 74.194 53.0155 73.9194 53.1323 73.6763L53.126 73.689C54.3885 71.9183 55.6321 70.3781 56.9545 68.9073L56.9135 68.9546L60.3854 64.539L59.7573 63.1187C59.2523 62.1908 58.7694 61.0955 58.3812 59.9593L58.337 59.8078C58.0213 58.7557 57.7583 57.7573 57.5479 56.8125L57.3901 55.7078L55.812 59.4953C54.5516 62.439 53.3943 64.963 52.3401 67.0672C50.7683 70.2234 49.4532 72.6432 48.3948 74.3265L48.0792 74.8C46.8188 76.7968 45.6089 77.7953 44.4495 77.7953C43.2901 77.7953 42.5042 77.0588 42.0918 75.5859C41.7888 74.5001 41.612 73.2534 41.612 71.9657C41.612 71.852 41.612 71.7384 41.6152 71.6248V71.6406L41.9308 69.4312V69.589C41.0891 71.5859 40.2474 73.426 39.4058 75.1093C38.8471 76.2014 38.2727 77.1324 37.6288 78.0099L37.6698 77.9499C37.0197 78.6317 36.1043 79.0546 35.0912 79.0546C35.0817 79.0546 35.0754 79.0546 35.0659 79.0546C34.9997 79.0609 34.9239 79.0609 34.8482 79.0609C34.0496 79.0609 33.3237 78.7579 32.7745 78.2624L32.7777 78.2655C31.6761 77.1356 30.8587 75.7248 30.4357 74.1498L30.4199 74.0835C29.9023 72.6474 29.6056 70.9872 29.6056 69.2576C29.6056 69.0335 29.6119 68.8126 29.6214 68.5948V68.6263C29.8708 66.114 30.3726 63.8131 31.108 61.6195L31.0417 61.8436L25.3636 65.1576V65.3154C26.1874 67.0261 26.6703 69.0335 26.6703 71.1545C26.6703 71.5427 26.6545 71.9278 26.623 72.3065L26.6261 72.256C26.4588 75.507 25.4204 78.4833 23.7445 80.9988L23.7855 80.9357C22.0275 83.7258 19.493 85.8816 16.4819 87.1283L16.3778 87.1662C14.6829 87.9268 12.7008 88.3719 10.6176 88.3719C9.29831 88.3719 8.01688 88.1951 6.80488 87.8605L6.90588 87.8826C5.90219 87.5449 5.08156 86.8758 4.56078 86.011L4.55131 85.992C3.81591 84.9252 3.35194 83.6217 3.27935 82.2172V82.1982C3.24463 81.8794 3.22569 81.5102 3.22569 81.1346C3.22569 79.5154 3.59497 77.9815 4.25463 76.6148L4.22622 76.6779C6.03791 73.588 8.54397 71.0851 11.5361 69.3239L11.6308 69.2734C13.7486 67.8057 16.1821 66.3823 18.7229 65.1418L19.0574 64.9935L19.8465 64.5201C18.8996 63.7836 17.1637 62.5211 14.6387 60.7326C11.2647 58.4727 8.3325 56.1907 5.56763 53.7225L5.64653 53.792C2.97319 51.4911 1.02578 48.4169 0.151501 44.9166L0.126251 44.7967C0.044189 44.3106 -0.00315475 43.7519 -0.00315475 43.1838C-0.00315475 41.4037 0.454501 39.7309 1.25619 38.2758L1.23094 38.3295C2.99844 34.5294 5.44769 31.3258 8.45244 28.7503L8.49031 28.7187C11.7413 25.6477 15.4214 22.9743 19.4173 20.8092L19.6918 20.6734C23.2616 18.6124 27.431 16.6966 31.7771 15.1595L32.3137 14.9953C36.3505 13.5182 41.0123 12.6534 45.8729 12.6376H45.8793C46.1002 12.6313 46.3622 12.625 46.6241 12.625C50.541 12.625 54.2465 13.5308 57.5416 15.1437L57.3964 15.0774C60.237 16.3715 62.3643 18.8081 63.2165 21.7876L63.2355 21.8633C63.4974 22.8797 63.6458 24.0475 63.6458 25.25C63.6458 27.2448 63.2323 29.1448 62.4906 30.8681L62.5253 30.7766C61.1744 34.0496 59.2523 36.8366 56.8535 39.1312L56.8441 39.1407C54.4138 41.5489 51.5005 43.4742 48.2654 44.7588L48.0918 44.8188C44.702 46.2738 40.7661 47.1891 36.6346 47.3406L36.5746 47.3438C35.9686 47.4132 35.2679 47.4511 34.5578 47.4511C32.6893 47.4511 30.8871 47.1828 29.1827 46.6809L29.3184 46.7157C27.7939 46.2296 26.4778 45.4753 25.3605 44.4968L25.3731 44.5063C24.5903 43.8687 23.9528 43.0828 23.4983 42.1896L23.4793 42.1486C23.1637 41.3069 23.1374 40.8072 23.4004 40.6493C23.6635 40.4915 23.8476 40.4652 23.9528 40.5704L24.7418 41.3595C25.6224 42.177 26.6735 42.8208 27.835 43.2312L27.8981 43.2501C29.4952 43.8056 31.3384 44.1275 33.2543 44.1275C33.8697 44.1275 34.4757 44.096 35.0723 44.0297L34.9997 44.036C40.1065 43.4332 44.7114 41.6909 48.6852 39.0712L48.5684 39.1438C51.9266 37.1459 54.6442 34.4 56.5568 31.1269L56.6137 31.0196C57.5637 29.6246 58.1318 27.9013 58.1318 26.0454C58.1318 24.906 57.9172 23.8139 57.5258 22.8102L57.5479 22.8702C56.3675 21.0048 54.4579 19.6918 52.2296 19.3289L52.1854 19.3226C50.4558 18.8965 48.4674 18.6503 46.4253 18.6503C44.7809 18.6503 43.1712 18.8081 41.6152 19.1111L41.773 19.0858C36.4484 20.0453 31.6888 21.6898 27.2984 23.9496L27.5856 23.8139C14.6492 30.3368 7.96953 37.0165 7.5466 43.8529V44.0076C7.5466 46.763 8.62919 49.2659 10.3935 51.1155L10.3904 51.1123C12.4009 53.3469 14.6229 55.3196 17.0501 57.024L17.1732 57.106C19.3857 58.7599 21.3426 60.4674 23.1637 62.3107L23.1669 62.317L23.4825 62.6326L33.5825 57.1123C34.7345 55.4458 36.1201 54.0382 37.7109 52.9019L37.7614 52.8672C39.0239 51.8067 40.6273 51.1155 42.3853 50.9766L42.4137 50.9734C42.4768 50.9671 42.5494 50.9671 42.6252 50.9671C43.8024 50.9671 44.8124 51.6773 45.248 52.6936L45.2543 52.7125C45.5857 53.4543 45.7783 54.3222 45.7783 55.2344C45.7783 55.5121 45.7593 55.7867 45.7246 56.0582L45.7278 56.0266L45.4216 57.5826L45.895 57.267C46.2233 57.0177 46.6368 56.8693 47.0849 56.8693C47.369 56.8693 47.6373 56.9293 47.8803 57.0366L47.8677 57.0303C48.4737 57.1881 48.9124 57.731 48.9124 58.3748C48.9124 58.4853 48.8998 58.5926 48.8745 58.6968L48.8777 58.6873L48.4043 60.4233C47.4574 64.2086 46.8272 66.943 46.5137 68.6263C46.3558 69.1724 46.2675 69.8005 46.2675 70.4507C46.2675 70.5864 46.2706 70.7189 46.2801 70.8515V70.8326C46.3327 71.4638 46.4116 71.7794 46.5168 71.7794C46.622 71.7794 46.8314 71.4638 47.1449 70.8326L47.6183 69.7279C47.7236 69.7279 47.7236 69.7805 47.6183 69.8857L49.3543 66.256C53.4574 57.2123 55.6657 52.1623 55.9792 51.106L56.9261 48.1107C57.0313 47.9003 57.4522 47.6909 58.1886 47.4826C58.9367 47.2806 59.792 47.1638 60.6758 47.1638C60.7483 47.1638 60.8209 47.1638 60.8904 47.167H60.8809C62.3538 47.167 63.0903 47.5352 63.0903 48.2717L62.9325 49.0608C62.579 50.0329 62.2286 51.248 61.9572 52.4916L61.9225 52.6904C61.8593 53.0976 61.8215 53.5647 61.8215 54.0445C61.8215 54.682 61.8846 55.3038 62.0077 55.9067L61.9982 55.8467L62.156 56.4748C62.478 57.7909 62.9672 58.9461 63.6079 60.0003L63.5763 59.9467C64.8367 57.8446 66.0466 55.6889 67.206 53.4795C68.1213 51.955 68.9735 50.1875 69.6584 48.338L69.731 48.117C69.9678 46.9271 70.2392 45.9234 70.5706 44.945L70.5201 45.1218C70.6253 44.8061 71.0745 44.5694 71.8678 44.4116C72.619 44.2601 73.4807 44.1749 74.3612 44.1749H74.4749H74.4686C75.9415 44.1749 76.7274 44.5431 76.8263 45.2796L76.5107 45.9077C76.1351 46.9682 75.8068 48.2433 75.5859 49.5531L75.5669 49.6952C75.5385 50.0013 75.5196 50.3548 75.5196 50.7146C75.5196 51.469 75.5953 52.2075 75.7374 52.9208L75.7248 52.8483V53.4763C76.0877 54.8525 76.6274 56.0613 77.3344 57.1565L77.3029 57.106L77.7763 58.2107C80.4118 56.9167 83.5112 56.1592 86.7874 56.1592H86.9105H86.9042L86.901 56.1686ZM19.2342 79.0609C21.4278 76.7947 22.7818 73.7016 22.7818 70.2928C22.7818 68.9767 22.5798 67.7079 22.2074 66.5148L22.2326 66.6032L19.7076 68.1813C17.1321 69.649 14.9038 71.2871 12.887 73.1493L12.9122 73.1272C11.3814 74.5349 10.2515 76.356 9.696 78.4107L9.67706 78.4896C9.20363 80.436 9.44034 81.6985 10.3872 82.2771C10.9648 82.5423 11.6434 82.6969 12.3536 82.6969C13.13 82.6969 13.8654 82.5138 14.5124 82.1856L14.484 82.1982C16.3588 81.5165 17.9464 80.4339 19.2089 79.0483L19.2184 79.0388L19.2342 79.0609ZM40.3716 64.5295C40.8976 63.1618 41.4763 61.5311 42.1075 59.6373C42.9492 57.1123 43.2385 55.6405 42.9755 55.2218C42.7125 54.803 42.2127 54.7504 41.4763 55.0639C40.5988 55.49 39.8634 56.0739 39.2764 56.7904L39.2669 56.803C38.6104 57.6331 37.9855 58.5611 37.43 59.5363L37.3732 59.6437C36.7356 60.6884 36.1959 61.8909 35.8203 63.166L35.7919 63.2734C35.1827 64.9241 34.8292 66.8336 34.8292 68.822C34.8292 69.0903 34.8355 69.3554 34.8482 69.6206V69.5827C34.9534 71.6848 35.29 72.8157 35.8582 72.9757C36.4263 73.1356 37.0838 72.3728 37.8308 70.6874C38.5536 69.3838 39.1975 67.8688 39.6772 66.2813L39.7214 66.1108C40.0349 65.3659 40.2496 64.8388 40.3653 64.5295H40.3716ZM57.8762 72.8936C60.0634 71.912 61.6037 69.8447 61.8183 67.3986L61.8215 67.3733V67.2155L60.0855 69.4249L56.9324 72.8968C56.8851 72.9346 56.8535 72.9914 56.8535 73.0546C56.8535 73.1177 56.8851 73.1745 56.9293 73.2124C57.0303 73.3155 57.3459 73.2103 57.8762 72.8968V72.8936ZM71.4449 69.8952C73.831 69.2134 75.548 67.0514 75.548 64.4917C75.548 64.4506 75.548 64.4096 75.548 64.3686V64.3749C75.5164 63.7436 75.4028 63.1503 75.2166 62.5884L75.2292 62.6358C74.0014 63.7278 72.9946 65.0345 72.2655 66.5085L72.2308 66.5811C71.2818 68.4727 71.0167 69.5753 71.4354 69.8888L71.4449 69.8952Z" fill="#AD6868" fill-opacity="0.678431"/>
</g>
<defs>
<clipPath id="clip0_159_93">
<rect width="101" height="101" fill="white"/>
</clipPath>
</defs>
</svg>
