<svg width="103" height="103" viewBox="0 0 103 103" fill="none" xmlns="http://www.w3.org/2000/svg">
<g clip-path="url(#clip0_158_85)">
<path d="M0 51.5V103H103V0H0V51.5ZM82.9987 47.3929C85.6155 48.0463 87.6079 49.2211 89.4523 51.1138C90.3922 52.118 91.7987 53.9623 91.9178 54.4162C91.95 54.5514 87.476 57.5512 84.7593 59.2282C84.6596 59.2958 84.2572 58.8774 83.8195 58.2207C82.4966 56.2927 81.1028 55.4558 78.9753 55.3046C75.8563 55.1018 73.8446 56.7305 73.8607 59.4632C73.8446 60.1327 73.9958 60.8054 74.2952 61.3912C74.984 62.8171 76.2747 63.6701 80.2628 65.3986C87.6401 68.5658 90.7913 70.6612 92.7515 73.6289C94.9467 76.9474 95.4327 82.2455 93.9585 86.2013C92.317 90.4758 88.2581 93.392 82.5577 94.348C80.7971 94.6667 76.6063 94.6152 74.7104 94.2643C70.5711 93.5272 66.6474 91.4801 64.2334 88.7989C63.2774 87.7592 61.4331 85.0265 61.5522 84.843C61.6037 84.7754 62.0221 84.5083 62.492 84.2379C62.962 83.9675 64.6872 82.9633 66.3159 82.0234L69.2836 80.2982L69.9048 81.2187C70.7771 82.5416 72.6697 84.3538 73.8124 84.9557C77.0987 86.7002 81.6082 86.4492 83.8388 84.4536C84.7433 83.7004 85.2486 82.5416 85.181 81.37C85.181 80.1791 85.0297 79.6447 84.4085 78.7532C83.6038 77.6137 81.9783 76.6417 77.3337 74.6299C72.0195 72.3318 69.7213 70.9252 67.6453 68.6624C66.3384 67.1689 65.3664 65.4114 64.8128 63.5156C64.4265 62.0575 64.3267 58.401 64.6293 56.9429C65.7204 51.7961 69.6087 48.2265 75.19 47.1708C77.0022 46.8199 81.2252 46.9519 83.0019 47.3897L82.9987 47.3929ZM58.8259 51.7028L58.8581 55.9097H45.4455V94.0165H35.9567V55.9097H22.5634V51.7865C22.5634 49.4883 22.6149 47.5796 22.6793 47.5281C22.7308 47.4605 30.8775 47.4283 40.7687 47.4444L58.7744 47.4959L58.8259 51.7028Z" fill="#AD6868"/>
</g>
<defs>
<clipPath id="clip0_158_85">
<rect width="103" height="103" fill="white"/>
</clipPath>
</defs>
</svg>
